#tb 0: 1/25
0,          0,          0,        1,   599040, 0xbd0eb43e
0,          1,          1,        1,   599040, 0x4c3a98b5
0,          2,          2,        1,   599040, 0x105410dc
0,          3,          3,        1,   599040, 0xffaff69c
0,          4,          4,        1,   599040, 0x39cb22ea
0,          5,          5,        1,   599040, 0xa19296c3
0,          6,          6,        1,   599040, 0x84cad39d
0,          7,          7,        1,   599040, 0x5dc5c5a9
0,          8,          8,        1,   599040, 0xc6a2c0dd
0,          9,          9,        1,   599040, 0xeb5947bf
0,         10,         10,        1,   599040, 0x9f8f9ce5
0,         11,         11,        1,   599040, 0xdce5be4e
0,         12,         12,        1,   599040, 0x07141c84
0,         13,         13,        1,   599040, 0x3a05273d
0,         14,         14,        1,   599040, 0xa16a112c
0,         15,         15,        1,   599040, 0x6fa79123
0,         16,         16,        1,   599040, 0xbda4cf46
0,         17,         17,        1,   599040, 0xa5a81a05
0,         18,         18,        1,   599040, 0x7370af29
0,         19,         19,        1,   599040, 0xbd70e89e
0,         20,         20,        1,   599040, 0xe7850613
0,         21,         21,        1,   599040, 0xfaa8cf89
0,         22,         22,        1,   599040, 0x30a78a21
0,         23,         23,        1,   599040, 0x5520a8cf
0,         24,         24,        1,   599040, 0xbcd93ea7
0,         25,         25,        1,   599040, 0xd8ce632c
0,         26,         26,        1,   599040, 0x87c6476f
0,         27,         27,        1,   599040, 0xf6799dcc
0,         28,         28,        1,   599040, 0xc0370664
0,         29,         29,        1,   599040, 0x17196bd3
0,         30,         30,        1,   599040, 0xe7ae6de3
0,         31,         31,        1,   599040, 0x0345bc72
0,         32,         32,        1,   599040, 0x7b86141e
0,         33,         33,        1,   599040, 0x65564792
0,         34,         34,        1,   599040, 0xf90c7f54
0,         35,         35,        1,   599040, 0x00ce2f3c
0,         36,         36,        1,   599040, 0xe6b185f2
0,         37,         37,        1,   599040, 0x513942f1
0,         38,         38,        1,   599040, 0x7c27b03a
0,         39,         39,        1,   599040, 0xa201fea3
0,         40,         40,        1,   599040, 0x5023fd92
0,         41,         41,        1,   599040, 0xe05ba218
0,         42,         42,        1,   599040, 0x84b61765
0,         43,         43,        1,   599040, 0xfa6c8f65
0,         44,         44,        1,   599040, 0xede8ef78
0,         45,         45,        1,   599040, 0xcd2763f2
0,         46,         46,        1,   599040, 0xb83e3bc6
0,         47,         47,        1,   599040, 0x99fb3a3e
0,         48,         48,        1,   599040, 0x3dd1e5ac
0,         49,         49,        1,   599040, 0x776d7464
0,         50,         50,        1,   599040, 0xaea89891
0,         51,         51,        1,   599040, 0xfc0f1ec9
0,         52,         52,        1,   599040, 0x2621f36f
0,         53,         53,        1,   599040, 0x41101bbc
0,         54,         54,        1,   599040, 0x7a5d4d0e
0,         55,         55,        1,   599040, 0xc04fb148
0,         56,         56,        1,   599040, 0x889d8186
0,         57,         57,        1,   599040, 0x26f091bf
0,         58,         58,        1,   599040, 0xe6644a2d
0,         59,         59,        1,   599040, 0xd48efb7f
0,         60,         60,        1,   599040, 0xe25204e3
0,         61,         61,        1,   599040, 0x928f2efd
0,         62,         62,        1,   599040, 0x535a4f2d
0,         63,         63,        1,   599040, 0x2672ad63
0,         64,         64,        1,   599040, 0x194f1463
